:SAMPLES-PER-SECOND 30
:FULLY-SPECIFIED
:DEGREES
164
root  -3.34127 40.8803 0.901107 175.095 -85.8399 -176.981
RightUpLeg  6.17601 -1.60449 -1.64095
RightLeg  -0.773274 -15.3401 -0.0980306
RightFoot  -1.92975 -0.321246 3.754
RightToes  -3.13006e-008 1.75238e-005 3.56266e-009
Spine  -8.89177 -2.79092 -5.00173
Spine1  13.9415 -4.02952 5.14624
HEad  -17.1677 -12.6027 8.01443
LeftShoulder1  2.79074 -6.00145 -23.0986
LeftArm  -13.1568 -4.88706 -51.923
LeftForeArm  156.098 -66.0785 -156.375
LeftHand  -0.205609 -6.94925 2.28663
RightShoulder  1.8865 3.69966 19.8099
RightArm  -51.8671 9.52337 10.0251
RightForeArm  114.647 77.2633 124.547
RightHand  -0.575351 8.62669 -5.13763
LeftUpLeg  6.45928 1.70766 2.06463
LeftLeg  -1.01012 15.6643 -0.62544
LeftFoot  -2.60209 0.230474 -2.97496
LeftToes  4.76866e-008 1.46233e-008 1.30548e-009
165
root  -3.32917 40.88 0.915087 176.306 -85.9075 -178.194
RightUpLeg  6.10578 -1.68811 -1.77382
RightLeg  -0.641315 -15.3001 -0.129797
RightFoot  -1.98873 -0.324849 3.82665
RightToes  -3.13006e-008 1.75238e-005 3.56266e-009
Spine  -9.17054 -2.79133 -4.91405
Spine1  14.221 -4.00789 5.04162
HEad  -16.778 -11.4214 7.27573
LeftShoulder1  2.86973 -6.1525 -23.4791
LeftArm  -13.3291 -5.04517 -51.3997
LeftForeArm  156.421 -66.562 -155.891
LeftHand  -0.182123 -7.10621 2.04289
RightShoulder  1.98928 3.95564 20.3286
RightArm  -50.2881 9.34595 10.7254
RightForeArm  117.325 76.8862 127.008
RightHand  -0.609328 8.91232 -5.31674
LeftUpLeg  6.45572 1.68924 1.97602
LeftLeg  -1.06404 15.6233 -0.702146
LeftFoot  -2.56913 0.228865 -2.95172
LeftToes  4.76866e-008 1.46233e-008 1.30548e-009
166
root  -3.32136 40.8797 0.923038 177.286 -85.9543 -179.217
RightUpLeg  6.10484 -1.7238 -1.85308
RightLeg  -0.564573 -15.3013 -0.187161
RightFoot  -2.03349 -0.323321 3.82163
RightToes  -3.13006e-008 1.75238e-005 3.56266e-009
Spine  -8.96765 -2.67098 -4.69969
Spine1  13.8813 -3.81526 4.79334
HEad  -16.5172 -10.3642 7.1374
LeftShoulder1  2.76203 -5.86281 -23.2362
LeftArm  -13.0314 -5.18704 -51.7487
LeftForeArm  156.717 -67.4093 -154.982
LeftHand  -0.0945458 -7.37665 1.23135
RightShoulder  2.09478 4.19269 20.9066
RightArm  -48.8585 8.98086 11.4188
RightForeArm  120.767 76.305 130.291
RightHand  -0.744605 9.04242 -6.36145
LeftUpLeg  6.5156 1.693 1.91568
LeftLeg  -1.13107 15.5974 -0.78355
LeftFoot  -2.5249 0.22496 -2.89139
LeftToes  4.76866e-008 1.46233e-008 1.30548e-009
167
root  -3.311 40.8794 0.926957 177.744 -85.9509 -179.723
RightUpLeg  6.13842 -1.73569 -1.88981
RightLeg  -0.557009 -15.2772 -0.212401
RightFoot  -2.04871 -0.323366 3.84195
RightToes  -3.13006e-008 1.75238e-005 3.56266e-009
Spine  -9.22017 -2.57653 -4.53332
Spine1  14.2059 -3.68286 4.60825
HEad  -16.0574 -9.03309 7.43839
LeftShoulder1  2.79303 -5.96287 -23.2525
LeftArm  -13.077 -4.88783 -51.3552
LeftForeArm  157.832 -67.94 -154.485
LeftHand  -0.066481 -8.49564 0.935131
RightShoulder  2.29424 4.68906 21.7546
RightArm  -47.4079 8.43984 11.677
RightForeArm  125.228 75.8172 133.107
RightHand  -0.813784 9.5542 -6.69396
LeftUpLeg  6.59337 1.53548 1.77293
LeftLeg  -1.23296 15.8184 -0.67384
LeftFoot  -2.455 0.232125 -3.00189
LeftToes  4.76866e-008 1.46233e-008 1.30548e-009
168
root  -3.29589 40.879 0.928967 177.549 -86.0464 -179.528
RightUpLeg  6.1239 -1.75164 -1.88795
RightLeg  -0.55722 -15.325 -0.188913
RightFoot  -2.00573 -0.321178 3.82756
RightToes  -3.13006e-008 1.75238e-005 3.56266e-009
Spine  -9.40369 -2.5252 -4.5088
Spine1  14.2385 -3.66085 4.73178
HEad  -15.5056 -7.57043 7.80732
LeftShoulder1  2.83569 -6.0717 -23.3684
LeftArm  -13.6485 -5.45834 -50.8383
LeftForeArm  161.169 -68.9141 -153.683
LeftHand  -0.130915 -8.59591 1.46864
RightShoulder  2.35009 4.81624 22.0113
RightArm  -45.3619 7.97677 13.1209
RightForeArm  128.939 75.2259 135.846
RightHand  -0.891886 9.45138 -7.33775
LeftUpLeg  6.5338 1.54859 1.80546
LeftLeg  -1.18207 15.6996 -0.671642
LeftFoot  -2.45996 0.237541 -3.07579
LeftToes  4.76866e-008 1.46233e-008 1.30548e-009
169
root  -3.28885 40.8786 0.928706 177.464 -86.0097 -179.504
RightUpLeg  6.1391 -1.75851 -1.89497
RightLeg  -0.483412 -15.2621 -0.208917
RightFoot  -2.01921 -0.322738 3.87026
RightToes  -3.13006e-008 1.75238e-005 3.56266e-009
Spine  -9.17633 -2.35519 -4.64656
Spine1  13.8181 -3.57567 5.12827
HEad  -14.5277 -6.12015 8.51622
LeftShoulder1  2.88704 -6.17078 -23.6098
LeftArm  -14.5289 -5.78039 -50.6639
LeftForeArm  163.303 -70.1289 -152.317
LeftHand  -0.199194 -8.61536 2.03517
RightShoulder  2.31319 4.62586 22.2311
RightArm  -43.175 6.76008 14.6739
RightForeArm  132.869 74.3441 139.173
RightHand  -0.720509 9.29506 -6.0733
LeftUpLeg  6.59218 1.65723 1.87092
LeftLeg  -1.15603 15.6199 -0.759381
LeftFoot  -2.51553 0.237414 -3.05645
LeftToes  4.76866e-008 1.46233e-008 1.30548e-009
170
root  -3.28152 40.8783 0.928492 177.834 -85.8341 -179.994
RightUpLeg  6.15796 -1.8067 -1.95521
RightLeg  -0.320836 -15.0041 -0.255053
RightFoot  -2.06031 -0.326955 3.95213
RightToes  -3.13006e-008 1.75238e-005 3.56266e-009
Spine  -9.21109 -2.34967 -4.89212
Spine1  14.0319 -3.66047 5.49381
HEad  -14.0428 -4.74192 9.61668
LeftShoulder1  2.89671 -6.13402 -23.8319
LeftArm  -15.9402 -6.27873 -50.8819
LeftForeArm  153.648 -71.1419 -149.383
LeftHand  0.0546285 -8.57691 -0.0740864
RightShoulder  2.38597 4.74348 22.7408
RightArm  -40.9439 5.96785 16.7751
RightForeArm  134.8 73.4543 141.796
RightHand  -0.735516 9.41585 -6.14412
LeftUpLeg  6.78236 1.6536 1.82148
LeftLeg  -1.26689 15.861 -0.797471
LeftFoot  -2.51056 0.240281 -3.08227
LeftToes  4.76866e-008 1.46233e-008 1.30548e-009
171
root  -3.26311 40.8779 0.930694 178.005 -85.5198 179.781
RightUpLeg  6.05865 -1.78386 -1.96288
RightLeg  -0.139196 -14.7287 -0.344076
RightFoot  -2.10977 -0.321111 3.87475
RightToes  -3.13006e-008 1.75238e-005 3.56266e-009
Spine  -9.32151 -2.4667 -5.46249
Spine1  14.2866 -4.00817 6.40378
HEad  -13.3092 -2.54533 10.009
LeftShoulder1  3.02598 -6.3162 -24.6332
LeftArm  -17.9317 -6.94387 -50.8153
LeftForeArm  135.34 -72.3191 -144.441
LeftHand  0.379141 -8.14875 -2.87341
RightShoulder  2.45964 4.86508 23.2231
RightArm  -38.2681 5.9517 19.1295
RightForeArm  135.844 73.1417 142.69
RightHand  -0.72267 9.02964 -6.1861
LeftUpLeg  6.86086 1.64903 1.78302
LeftLeg  -1.2827 16.1527 -0.805434
LeftFoot  -2.47571 0.232701 -2.94379
LeftToes  4.76866e-008 1.46233e-008 1.30548e-009
172
root  -3.23677 40.8775 0.938343 177.544 -84.9492 -179.843
RightUpLeg  5.94018 -1.68796 -1.91385
RightLeg  0.0509536 -14.2703 -0.467674
RightFoot  -2.11481 -0.327881 3.98908
RightToes  -3.13006e-008 1.75238e-005 3.56266e-009
Spine  -9.50231 -2.54615 -5.52222
Spine1  14.7014 -4.19131 6.65577
HEad  -12.2432 0.129931 10.9902
LeftShoulder1  3.07998 -6.38756 -24.9719
LeftArm  -19.3986 -7.37014 -50.2283
LeftForeArm  112.588 -73.3165 -138.45
LeftHand  0.612057 -7.27173 -5.23265
RightShoulder  2.65942 5.32637 23.9904
RightArm  -35.2053 4.76243 21.1519
RightForeArm  138.16 72.7191 144.014
RightHand  -0.641508 9.09602 -5.51696
LeftUpLeg  6.93395 1.68717 1.7928
LeftLeg  -1.17981 16.6565 -0.780304
LeftFoot  -2.54573 0.241341 -3.05568
LeftToes  4.76866e-008 1.46233e-008 1.30548e-009
173
root  -3.21343 40.8771 0.945369 176.627 -84.6697 -179.099
RightUpLeg  6.09207 -1.69501 -1.88108
RightLeg  -0.0287337 -13.9865 -0.403514
RightFoot  -2.03451 -0.317365 3.82999
RightToes  -3.13006e-008 1.75238e-005 3.56266e-009
Spine  -9.73434 -2.84719 -5.37437
Spine1  15.4868 -4.53797 6.50355
HEad  -11.7295 1.73323 11.7604
LeftShoulder1  3.18924 -6.63813 -25.289
LeftArm  -21.7157 -9.13244 -48.3045
LeftForeArm  92.9 -74.9655 -129.743
LeftHand  0.857211 -7.0539 -7.61096
RightShoulder  2.79629 5.49696 24.9943
RightArm  -32.0556 4.36155 23.3428
RightForeArm  138.841 72.9314 143.657
RightHand  -0.619873 9.17039 -5.31198
LeftUpLeg  7.01516 1.79167 1.88961
LeftLeg  -0.952082 16.8202 -0.74263
LeftFoot  -2.67259 0.255503 -3.25118
LeftToes  4.76866e-008 1.46233e-008 1.30548e-009
174
root  -3.16201 40.8733 0.937683 176.185 -84.6617 -178.961
RightUpLeg  6.30443 -1.726 -1.86509
RightLeg  0.0592568 -13.9319 -0.419524
RightFoot  -2.04348 -0.319206 3.85663
RightToes  -3.13006e-008 1.75238e-005 3.56266e-009
Spine  -10.2242 -3.26936 -5.53408
Spine1  17.1522 -5.07337 6.5355
HEad  -11.4687 4.39111 12.4467
LeftShoulder1  3.4017 -7.17641 -25.7197
LeftArm  -25.953 -13.7868 -44.5628
LeftForeArm  73.2409 -77.3292 -112.37
LeftHand  0.949446 -6.76855 -8.68066
RightShoulder  2.79776 5.40198 25.3573
RightArm  -29.1747 4.29348 26.0047
RightForeArm  139.215 73.5488 142.332
RightHand  -0.455184 8.81533 -4.10084
LeftUpLeg  7.1183 1.8315 1.9234
LeftLeg  -0.648553 16.7523 -0.626774
LeftFoot  -2.71482 0.250015 -3.13823
LeftToes  4.76866e-008 1.46233e-008 1.30548e-009
